<svg width="204" height="55" viewBox="0 0 204 55" fill="none" xmlns="http://www.w3.org/2000/svg">
<path d="M196.336 34.4941H191.177C190.708 34.4941 190.326 34.1182 190.318 33.6494V33.6494C190.31 33.1691 190.697 32.7754 191.177 32.7754H195.472C196.526 32.7754 197.424 32.6046 198.166 32.263C198.908 31.9215 199.469 31.4147 199.85 30.7426C200.24 30.0595 200.435 29.2222 200.435 28.2306C200.435 27.217 200.245 26.3796 199.864 25.7186C199.484 25.0465 198.913 24.5507 198.151 24.2312C197.39 23.9117 196.433 23.7519 195.281 23.7519H191.801C191.249 23.7519 190.801 24.1996 190.801 24.7519V45.1621C190.801 45.6595 190.398 46.0626 189.9 46.0626V46.0626C189.403 46.0626 189 45.6595 189 45.1621V23.0001C189 22.4478 189.448 22.0001 190 22.0001H195.281C196.365 22.0001 197.336 22.1213 198.195 22.3637C199.054 22.6061 199.786 22.9862 200.391 23.504C200.997 24.0219 201.455 24.6774 201.768 25.4707C202.09 26.2529 202.251 27.1894 202.251 28.2802C202.251 29.2718 202.056 30.1697 201.665 30.974C201.275 31.7672 200.723 32.4173 200.011 32.9241C199.355 33.3866 198.576 33.6862 197.674 33.8227C197.545 33.8423 197.419 33.8827 197.305 33.947L196.336 34.4941ZM196.204 46.0626H191.205C190.551 46.0626 190.132 45.3656 190.439 44.7877V44.7877C190.59 44.5044 190.884 44.3273 191.205 44.3273H196.204C197.258 44.3273 198.156 44.129 198.898 43.7324C199.649 43.3247 200.225 42.7463 200.626 41.9971C201.026 41.2479 201.226 40.3555 201.226 39.3198C201.226 38.4054 201.05 37.5846 200.699 36.8574C200.347 36.1302 199.811 35.5573 199.088 35.1386C198.366 34.709 197.448 34.4941 196.336 34.4941H193.476C192.996 34.4941 192.609 34.1004 192.617 33.6201V33.6201C192.625 33.1513 193.007 32.7754 193.476 32.7754H197.548C197.775 32.7754 197.983 32.9009 198.089 33.1016V33.1016C198.183 33.2801 198.359 33.3983 198.558 33.4328C199.382 33.5757 200.111 33.8965 200.743 34.395C201.465 34.9458 202.021 35.6455 202.412 36.4938C202.812 37.3422 203.012 38.2732 203.012 39.2868C203.012 40.7411 202.724 41.9751 202.148 42.9887C201.582 43.9913 200.787 44.757 199.762 45.2859C198.747 45.8037 197.561 46.0626 196.204 46.0626Z" fill="black"/>
<path d="M180.264 23.2905C180.257 23.3884 180.238 23.4851 180.208 23.5784L173.074 45.4512C172.955 45.8159 172.615 46.0626 172.231 46.0626V46.0626C171.626 46.0626 171.199 45.4692 171.391 44.8952L178.887 22.4961C178.986 22.1998 179.264 22.0001 179.576 22.0001V22.0001C179.998 22.0001 180.331 22.3578 180.301 22.7783L180.264 23.2905ZM187.602 46.0626C187.219 46.0626 186.879 45.8162 186.76 45.4518L179.611 23.5787C179.581 23.4852 179.562 23.3883 179.555 23.2902L179.518 22.7785C179.488 22.3579 179.822 22.0001 180.243 22.0001V22.0001C180.556 22.0001 180.833 22.1997 180.932 22.4958L188.442 44.8949C188.635 45.4689 188.208 46.0626 187.602 46.0626V46.0626ZM184.766 37.568C185.25 37.568 185.642 37.9602 185.642 38.4439V38.4439C185.642 38.9277 185.25 39.3198 184.766 39.3198H175.2C174.716 39.3198 174.324 38.9277 174.324 38.4439V38.4439C174.324 37.9602 174.716 37.568 175.2 37.568H184.766Z" fill="black"/>
<path d="M147.386 40.9135V21.0025C147.386 20.024 148.179 19.2308 149.158 19.2308V19.2308C150.136 19.2308 150.929 20.024 150.929 21.0025V42.9394C150.929 43.8651 150.179 44.6155 149.253 44.6155V44.6155C148.386 44.6155 147.663 43.9545 147.584 43.0912L147.386 40.9135ZM137.078 35.873V35.5259C137.078 34.1707 137.22 32.9368 137.503 31.824C137.786 30.7002 138.196 29.7361 138.733 28.9319C139.27 28.1166 139.924 27.4941 140.695 27.0644C141.466 26.6237 142.335 26.4033 143.301 26.4033C144.258 26.4033 145.097 26.6126 145.819 27.0313C146.542 27.45 147.157 28.0504 147.664 28.8327C148.172 29.6039 148.577 30.5294 148.879 31.6091C149.182 32.6779 149.397 33.8678 149.524 35.1789V36.2861C149.397 37.5642 149.182 38.732 148.879 39.7897C148.577 40.8474 148.172 41.7619 147.664 42.5331C147.157 43.3044 146.537 43.8993 145.805 44.318C145.082 44.7366 144.238 44.946 143.272 44.946C142.315 44.946 141.451 44.7201 140.68 44.2684C139.919 43.8167 139.27 43.1832 138.733 42.3679C138.196 41.5526 137.786 40.594 137.503 39.4923C137.22 38.3795 137.078 37.173 137.078 35.873ZM140.607 35.5259V35.873C140.607 36.6883 140.67 37.4485 140.797 38.1536C140.934 38.8587 141.144 39.4812 141.427 40.0211C141.71 40.5499 142.076 40.9686 142.525 41.2771C142.984 41.5746 143.53 41.7233 144.165 41.7233C144.965 41.7233 145.624 41.525 146.141 41.1284C146.659 40.7317 147.064 40.1974 147.357 39.5253C147.659 38.8422 147.864 38.082 147.972 37.2447V34.2534C147.913 33.6033 147.791 32.9974 147.606 32.4355C147.43 31.8736 147.191 31.3833 146.888 30.9646C146.586 30.5349 146.21 30.2044 145.761 29.973C145.321 29.7306 144.799 29.6094 144.194 29.6094C143.55 29.6094 143.003 29.7637 142.554 30.0722C142.105 30.3807 141.734 30.8049 141.441 31.3447C141.158 31.8846 140.948 32.5126 140.812 33.2287C140.675 33.9449 140.607 34.7106 140.607 35.5259Z" fill="url(#paint0_linear_463_3913)"/>
<path d="M130.564 40.4012V28.5055C130.564 27.527 131.357 26.7338 132.336 26.7338V26.7338C133.314 26.7338 134.107 27.527 134.107 28.5055V42.9057C134.107 43.85 133.342 44.6154 132.398 44.6154V44.6154C131.486 44.6154 130.734 43.8997 130.69 42.9888L130.564 40.4012ZM131.046 37.2592C131.064 36.9387 131.317 36.6756 131.638 36.6667V36.6667C131.972 36.6574 132.249 36.9256 132.238 37.2594C132.204 38.2277 132.091 39.1317 131.896 39.9715C131.662 40.9741 131.301 41.85 130.813 42.5992C130.325 43.3374 129.7 43.9158 128.939 44.3345C128.177 44.7421 127.265 44.946 126.201 44.946C125.43 44.946 124.722 44.8193 124.078 44.5659C123.433 44.3125 122.877 43.9213 122.409 43.3925C121.95 42.8636 121.593 42.175 121.34 41.3267C121.086 40.4783 120.959 39.4647 120.959 38.2858V28.4982C120.959 27.5238 121.749 26.7338 122.723 26.7338V26.7338C123.698 26.7338 124.488 27.5237 124.488 28.4982V38.3189C124.488 38.9689 124.556 39.5143 124.693 39.955C124.829 40.3847 125.015 40.7317 125.249 40.9961C125.483 41.2606 125.757 41.4479 126.069 41.558C126.381 41.6682 126.713 41.7233 127.065 41.7233C128.07 41.7233 128.861 41.503 129.437 41.0623C130.022 40.6105 130.437 40.0046 130.681 39.2443C130.882 38.6415 131.004 37.9798 131.046 37.2592Z" fill="url(#paint1_linear_463_3913)"/>
<path d="M103.344 35.873V35.4929C103.344 34.2038 103.51 33.0084 103.842 31.9066C104.173 30.7938 104.652 29.8298 105.276 29.0145C105.911 28.1882 106.682 27.5492 107.59 27.0974C108.507 26.6347 109.542 26.4033 110.694 26.4033C111.856 26.4033 112.89 26.6347 113.798 27.0974C114.716 27.5492 115.492 28.1882 116.126 29.0145C116.761 29.8298 117.244 30.7938 117.576 31.9066C117.907 33.0084 118.073 34.2038 118.073 35.4929V35.873C118.073 37.162 117.907 38.3574 117.576 39.4592C117.244 40.561 116.761 41.525 116.126 42.3513C115.492 43.1666 114.72 43.8057 113.813 44.2684C112.905 44.7201 111.875 44.946 110.723 44.946C109.562 44.946 108.522 44.7201 107.605 44.2684C106.697 43.8057 105.926 43.1666 105.291 42.3513C104.657 41.525 104.173 40.561 103.842 39.4592C103.51 38.3574 103.344 37.162 103.344 35.873ZM106.872 35.4929V35.873C106.872 36.6773 106.946 37.4375 107.092 38.1536C107.238 38.8698 107.468 39.4978 107.78 40.0376C108.093 40.5775 108.493 41.0017 108.981 41.3102C109.469 41.6187 110.05 41.7729 110.723 41.7729C111.377 41.7729 111.943 41.6187 112.422 41.3102C112.91 41.0017 113.31 40.5775 113.622 40.0376C113.935 39.4978 114.164 38.8698 114.31 38.1536C114.467 37.4375 114.545 36.6773 114.545 35.873V35.4929C114.545 34.6996 114.467 33.9504 114.31 33.2453C114.164 32.5291 113.93 31.8956 113.608 31.3447C113.295 30.7938 112.895 30.3642 112.407 30.0557C111.929 29.7362 111.358 29.5764 110.694 29.5764C110.03 29.5764 109.454 29.7362 108.966 30.0557C108.488 30.3642 108.093 30.7938 107.78 31.3447C107.468 31.8956 107.238 32.5291 107.092 33.2453C106.946 33.9504 106.872 34.6996 106.872 35.4929Z" fill="url(#paint2_linear_463_3913)"/>
<path d="M98.3791 19.2308C99.3575 19.2308 100.151 20.024 100.151 21.0025V42.8438C100.151 43.8223 99.3575 44.6155 98.3791 44.6155V44.6155C97.4006 44.6155 96.6074 43.8223 96.6074 42.8438V21.0025C96.6074 20.024 97.4006 19.2308 98.3791 19.2308V19.2308Z" fill="url(#paint3_linear_463_3913)"/>
<path d="M89.427 38.4218C89.6822 37.5088 90.4473 36.7819 91.3954 36.7819V36.7819C92.4705 36.7819 93.3375 37.7036 93.0774 38.7468C92.877 39.5508 92.5897 40.3006 92.2156 40.9962C91.5518 42.2191 90.6196 43.1831 89.419 43.8883C88.2183 44.5934 86.759 44.946 85.0411 44.946C83.7233 44.946 82.5373 44.6815 81.4831 44.1527C80.4289 43.6128 79.526 42.8526 78.7743 41.8721C78.0227 40.8805 77.4468 39.6851 77.0466 38.2858C76.6562 36.8866 76.4609 35.3221 76.4609 33.5923V31.5926C76.4609 29.8628 76.661 28.2983 77.0613 26.8991C77.4712 25.4999 78.0569 24.3044 78.8183 23.3129C79.5796 22.3103 80.4923 21.5445 81.5563 21.0157C82.63 20.4868 83.8355 20.2224 85.1728 20.2224C86.8713 20.2224 88.3062 20.575 89.4775 21.2801C90.6489 21.9852 91.5567 22.9603 92.2009 24.2053C92.5743 24.9162 92.865 25.6863 93.073 26.5157C93.334 27.5569 92.4759 28.4856 91.4025 28.4856V28.4856C90.4607 28.4856 89.7015 27.7601 89.4576 26.8505C89.3586 26.4816 89.2384 26.1397 89.0968 25.8249C88.7747 25.0867 88.2964 24.5248 87.6619 24.1392C87.0275 23.7425 86.1978 23.5442 85.1728 23.5442C84.3334 23.5442 83.6013 23.7205 82.9766 24.0731C82.3518 24.4256 81.8296 24.9435 81.4099 25.6266C80.9901 26.3097 80.6729 27.1525 80.4582 28.1551C80.2532 29.1467 80.1507 30.2815 80.1507 31.5596V33.5923C80.1507 34.8042 80.2434 35.906 80.4289 36.8976C80.6241 37.8782 80.9169 38.721 81.3074 39.4261C81.7076 40.1313 82.2152 40.6766 82.8301 41.0623C83.4451 41.4479 84.1821 41.6407 85.0411 41.6407C86.0855 41.6407 86.9299 41.4534 87.5741 41.0788C88.2281 40.7042 88.721 40.1588 89.0529 39.4427C89.1991 39.1316 89.3238 38.7913 89.427 38.4218Z" fill="url(#paint4_linear_463_3913)"/>
<path d="M34.0755 35.7692C34.0755 46.3901 26.4475 55 17.0378 55C7.62807 55 0 46.3901 0 35.7692C0 25.1484 7.62807 16.5385 17.0378 16.5385C26.4475 16.5385 34.0755 25.1484 34.0755 35.7692Z" fill="url(#paint5_linear_463_3913)"/>
<path d="M68.1511 35.7692C68.1511 46.3901 60.523 55 51.1133 55C41.7036 55 34.0755 46.3901 34.0755 35.7692C34.0755 25.1484 41.7036 16.5385 51.1133 16.5385C60.523 16.5385 68.1511 25.1484 68.1511 35.7692Z" fill="url(#paint6_linear_463_3913)"/>
<path d="M51.1133 19.2308C51.1133 29.8516 43.4853 38.4615 34.0755 38.4615C24.6658 38.4615 17.0378 29.8516 17.0378 19.2308C17.0378 8.60991 24.6658 0 34.0755 0C43.4853 0 51.1133 8.60991 51.1133 19.2308Z" fill="url(#paint7_linear_463_3913)"/>
<path d="M16.5266 38.4615H51.4541V55H16.5266V38.4615Z" fill="url(#paint8_linear_463_3913)"/>
<path d="M57.7581 16.5385C57.7581 21.3178 54.3254 25.1923 50.0911 25.1923C45.8567 25.1923 42.4241 21.3178 42.4241 16.5385C42.4241 11.7591 45.8567 7.88462 50.0911 7.88462C54.3254 7.88462 57.7581 11.7591 57.7581 16.5385Z" fill="url(#paint9_linear_463_3913)"/>
<path d="M39.7445 40.344L39.7333 40.3482L39.719 40.3556C38.3959 41.0442 36.9533 41.1424 35.6379 40.9926L35.9055 39.0896C36.9814 39.1998 38.0637 39.0995 39.0057 38.6093L39.0063 38.6089C39.0521 38.5851 39.075 38.5732 39.0881 38.5669C39.1034 38.5597 39.1052 38.5589 39.1208 38.5523C39.1342 38.5467 39.1571 38.538 39.2029 38.5207C40.3282 38.0948 41.1277 37.305 41.8586 36.3227C42.125 35.9646 42.2582 35.7856 42.4056 35.6977C42.5308 35.6231 42.6513 35.5885 42.793 35.5865C42.9596 35.5842 43.137 35.6628 43.4917 35.82L49.0421 38.2797C49.5342 38.4977 49.7802 38.6068 49.9244 38.8192C50.0342 38.9808 50.1022 39.2115 50.1001 39.4151C50.0974 39.6826 49.9688 39.917 49.7118 40.3856C48.0558 43.4049 45.6493 45.8254 42.7771 47.3336C39.4481 49.0817 35.6915 49.5004 32.1239 48.5208C28.5563 47.5413 25.3898 45.2218 23.1442 41.9431C20.8985 38.6644 19.7072 34.6214 19.7658 30.4777C19.7691 30.2469 19.7762 30.0166 19.7872 29.7868L21.4568 29.9991L21.5243 29.323C21.4934 29.7162 21.475 30.1116 21.4694 30.5084C21.4169 34.2159 22.4829 37.8334 24.4921 40.7669C26.5014 43.7005 29.3346 45.7758 32.5266 46.6522C35.7187 47.5287 39.0798 47.1541 42.0584 45.59C44.4675 44.325 46.5106 42.3425 47.9774 39.8738L43.0611 37.6952C42.2392 38.7733 41.218 39.7863 39.7445 40.344Z" fill="white"/>
<path fill-rule="evenodd" clip-rule="evenodd" d="M35.2572 14.4418C35.7171 14.4169 36.1771 14.4169 36.6356 14.4414C38.6548 14.5495 40.6454 15.1343 42.4743 16.1761C44.8587 17.5342 46.853 19.6036 48.2503 22.1418L43.0681 24.3615L43.0292 24.3047C42.1824 23.0678 41.1261 22.3461 40.002 21.7057C38.1804 20.6682 36.1005 20.3605 34.1036 20.8331C32.1067 21.3058 30.3116 22.5307 29.0128 24.3068C28.0153 25.6709 27.3561 27.2979 27.0892 29.0226L28.7798 29.277C29.0035 27.9074 29.533 26.6165 30.3268 25.5309C31.3795 24.0913 32.8347 23.0984 34.4533 22.7153C36.0719 22.3322 37.7579 22.5816 39.2343 23.4226C40.2893 24.0235 41.07 24.5881 41.681 25.4805C42.0339 25.9959 42.2103 26.2537 42.3586 26.349C42.5007 26.4402 42.5888 26.4683 42.7522 26.4743C42.9227 26.4806 43.1304 26.3917 43.5458 26.2138L49.287 23.7546C49.7726 23.5467 50.0154 23.4427 50.161 23.2361C50.2719 23.0788 50.3435 22.8531 50.3462 22.6521C50.3498 22.3882 50.2305 22.1532 49.9919 21.6834C48.4221 18.5923 46.0791 16.0753 43.2419 14.4592C41.1979 13.2949 38.973 12.6413 36.7163 12.5205C36.2868 12.4975 35.8561 12.4938 35.4253 12.5096V14.4104L35.2572 14.4418ZM42.5441 24.5792C42.543 24.5795 42.5427 24.5796 42.5433 24.5794L42.5441 24.5792Z" fill="white"/>
<path d="M19.8863 28.5255C19.8642 28.7263 19.8452 28.9278 19.829 29.1297L19.8591 28.8283C19.8673 28.7275 19.8764 28.6266 19.8863 28.5255Z" fill="white"/>
<path d="M35.7793 13.5577C35.7793 15.3101 34.5206 16.7308 32.968 16.7308C31.4154 16.7308 30.1568 15.3101 30.1568 13.5577C30.1568 11.8052 31.4154 10.3846 32.968 10.3846C34.5206 10.3846 35.7793 11.8052 35.7793 13.5577ZM31.9798 13.5577C31.9798 14.1737 32.4222 14.6731 32.968 14.6731C33.5138 14.6731 33.9563 14.1737 33.9563 13.5577C33.9563 12.9416 33.5138 12.4422 32.968 12.4422C32.4222 12.4422 31.9798 12.9416 31.9798 13.5577Z" fill="white"/>
<path d="M24.5343 22.7885C24.5343 24.5409 23.2757 25.9615 21.7231 25.9615C20.1705 25.9615 18.9119 24.5409 18.9119 22.7885C18.9119 21.036 20.1705 19.6154 21.7231 19.6154C23.2757 19.6154 24.5343 21.036 24.5343 22.7885ZM20.7348 22.7885C20.7348 23.4045 21.1773 23.9039 21.7231 23.9039C22.2689 23.9039 22.7113 23.4045 22.7113 22.7885C22.7113 22.1724 22.2689 21.673 21.7231 21.673C21.1773 21.673 20.7348 22.1724 20.7348 22.7885Z" fill="white"/>
<path fill-rule="evenodd" clip-rule="evenodd" d="M16.8673 29.1346C16.8673 28.5505 17.2869 28.0769 17.8044 28.0769H27.7715C28.289 28.0769 28.7938 28.5505 28.7938 29.1346C28.7938 29.7188 28.289 30.1923 27.7715 30.1923H17.8044C17.2869 30.1923 16.8673 29.7188 16.8673 29.1346Z" fill="white"/>
<path d="M18.06 29.1346C18.06 30.8871 16.8013 32.3077 15.2487 32.3077C13.6961 32.3077 12.4375 30.8871 12.4375 29.1346C12.4375 27.3822 13.6961 25.9615 15.2487 25.9615C16.8013 25.9615 18.06 27.3822 18.06 29.1346ZM14.2605 29.1346C14.2605 29.7507 14.7029 30.2501 15.2487 30.2501C15.7945 30.2501 16.237 29.7507 16.237 29.1346C16.237 28.5186 15.7945 28.0192 15.2487 28.0192C14.7029 28.0192 14.2605 28.5186 14.2605 29.1346Z" fill="white"/>
<path d="M36.6311 39.5192C36.6311 41.2717 35.3725 42.6923 33.8199 42.6923C32.2673 42.6923 31.0087 41.2717 31.0087 39.5192C31.0087 37.7668 32.2673 36.3462 33.8199 36.3462C35.3725 36.3462 36.6311 37.7668 36.6311 39.5192ZM32.8317 39.5192C32.8317 40.1353 33.2741 40.6347 33.8199 40.6347C34.3657 40.6347 34.8082 40.1353 34.8082 39.5192C34.8082 38.9032 34.3657 38.4038 33.8199 38.4038C33.2741 38.4038 32.8317 38.9032 32.8317 39.5192Z" fill="white"/>
<path fill-rule="evenodd" clip-rule="evenodd" d="M23.0861 23.2692C23.0861 22.6851 23.5057 22.2115 24.0232 22.2115H31.0087C31.5262 22.2115 31.9458 22.6851 31.9458 23.2692C31.9458 23.8534 31.5262 24.3269 31.0087 24.3269H24.0232C23.5057 24.3269 23.0861 23.8534 23.0861 23.2692Z" fill="white"/>
<path fill-rule="evenodd" clip-rule="evenodd" d="M23.3417 17.7885C23.3417 17.2043 23.7612 16.7308 24.2788 16.7308H30.0716C30.5891 16.7308 31.0087 17.2043 31.0087 17.7885C31.0087 18.3726 30.5891 18.8462 30.0716 18.8462H24.2788C23.7612 18.8462 23.3417 18.3726 23.3417 17.7885Z" fill="white"/>
<path d="M40.0387 30.1923C40.0387 32.8475 38.1317 35 35.7793 35C33.4268 35 31.5198 32.8475 31.5198 30.1923C31.5198 27.5371 33.4268 25.3846 35.7793 25.3846C38.1317 25.3846 40.0387 27.5371 40.0387 30.1923ZM33.2236 30.1923C33.2236 31.7854 34.3678 33.0769 35.7793 33.0769C37.1907 33.0769 38.3349 31.7854 38.3349 30.1923C38.3349 28.5992 37.1907 27.3077 35.7793 27.3077C34.3678 27.3077 33.2236 28.5992 33.2236 30.1923Z" fill="white"/>
<path d="M156.871 20C157.352 20 157.742 20.39 157.742 20.8712V44.5134C157.742 44.9946 157.352 45.3846 156.871 45.3846C156.39 45.3846 156 44.9946 156 44.5134V20.8712C156 20.39 156.39 20 156.871 20Z" fill="black"/>
<path fill-rule="evenodd" clip-rule="evenodd" d="M156.193 45.2693C156.193 44.717 156.641 44.2693 157.193 44.2693H167.193C167.746 44.2693 168.193 44.717 168.193 45.2693C168.193 45.8216 167.746 46.2693 167.193 46.2693H157.193C156.641 46.2693 156.193 45.8216 156.193 45.2693Z" fill="black"/>
<defs>
<linearGradient id="paint0_linear_463_3913" x1="144.004" y1="19.2308" x2="144.004" y2="44.946" gradientUnits="userSpaceOnUse">
<stop stop-color="#016AFF"/>
<stop offset="1" stop-color="#014099"/>
</linearGradient>
<linearGradient id="paint1_linear_463_3913" x1="127.533" y1="26.7338" x2="127.533" y2="44.946" gradientUnits="userSpaceOnUse">
<stop stop-color="#016AFF"/>
<stop offset="1" stop-color="#014099"/>
</linearGradient>
<linearGradient id="paint2_linear_463_3913" x1="110.709" y1="26.4033" x2="110.709" y2="44.946" gradientUnits="userSpaceOnUse">
<stop stop-color="#016AFF"/>
<stop offset="1" stop-color="#014099"/>
</linearGradient>
<linearGradient id="paint3_linear_463_3913" x1="98.3791" y1="19.2308" x2="98.3791" y2="44.6154" gradientUnits="userSpaceOnUse">
<stop stop-color="#016AFF"/>
<stop offset="1" stop-color="#014099"/>
</linearGradient>
<linearGradient id="paint4_linear_463_3913" x1="84.9312" y1="20.2224" x2="84.9312" y2="44.946" gradientUnits="userSpaceOnUse">
<stop stop-color="#016AFF"/>
<stop offset="1" stop-color="#014099"/>
</linearGradient>
<linearGradient id="paint5_linear_463_3913" x1="34.0756" y1="0" x2="34.0756" y2="55" gradientUnits="userSpaceOnUse">
<stop stop-color="#00A4FF"/>
<stop offset="0.3" stop-color="#0061FF"/>
<stop offset="0.6" stop-color="#024FCC"/>
<stop offset="1" stop-color="#053D99"/>
</linearGradient>
<linearGradient id="paint6_linear_463_3913" x1="34.0756" y1="0" x2="34.0756" y2="55" gradientUnits="userSpaceOnUse">
<stop stop-color="#00A4FF"/>
<stop offset="0.3" stop-color="#0061FF"/>
<stop offset="0.6" stop-color="#024FCC"/>
<stop offset="1" stop-color="#053D99"/>
</linearGradient>
<linearGradient id="paint7_linear_463_3913" x1="34.0756" y1="0" x2="34.0756" y2="55" gradientUnits="userSpaceOnUse">
<stop stop-color="#00A4FF"/>
<stop offset="0.3" stop-color="#0061FF"/>
<stop offset="0.6" stop-color="#024FCC"/>
<stop offset="1" stop-color="#053D99"/>
</linearGradient>
<linearGradient id="paint8_linear_463_3913" x1="34.0756" y1="0" x2="34.0756" y2="55" gradientUnits="userSpaceOnUse">
<stop stop-color="#00A4FF"/>
<stop offset="0.3" stop-color="#0061FF"/>
<stop offset="0.6" stop-color="#024FCC"/>
<stop offset="1" stop-color="#053D99"/>
</linearGradient>
<linearGradient id="paint9_linear_463_3913" x1="34.0756" y1="0" x2="34.0756" y2="55" gradientUnits="userSpaceOnUse">
<stop stop-color="#00A4FF"/>
<stop offset="0.3" stop-color="#0061FF"/>
<stop offset="0.6" stop-color="#024FCC"/>
<stop offset="1" stop-color="#053D99"/>
</linearGradient>
</defs>
</svg>
