<svg width="201" height="55" viewBox="0 0 201 55" fill="none" xmlns="http://www.w3.org/2000/svg">
<path d="M193.336 33.494H188.177C187.708 33.494 187.326 33.1181 187.318 32.6493V32.6493C187.31 32.169 187.697 31.7752 188.177 31.7752H192.472C193.526 31.7752 194.424 31.6045 195.166 31.2629C195.908 30.9214 196.469 30.4146 196.85 29.7425C197.24 29.0594 197.435 28.2221 197.435 27.2305C197.435 26.2168 197.245 25.3795 196.864 24.7184C196.484 24.0464 195.913 23.5506 195.151 23.2311C194.39 22.9116 193.433 22.7518 192.281 22.7518H188.801C188.249 22.7518 187.801 23.1995 187.801 23.7518V44.162C187.801 44.6593 187.398 45.0625 186.9 45.0625V45.0625C186.403 45.0625 186 44.6593 186 44.162V22C186 21.4477 186.448 21 187 21H192.281C193.365 21 194.336 21.1212 195.195 21.3636C196.054 21.606 196.786 21.9861 197.391 22.5039C197.997 23.0217 198.455 23.6773 198.768 24.4706C199.09 25.2528 199.251 26.1893 199.251 27.28C199.251 28.2716 199.056 29.1696 198.665 29.9739C198.275 30.7671 197.723 31.4172 197.011 31.924C196.355 32.3865 195.576 32.686 194.674 32.8225C194.545 32.8421 194.419 32.8826 194.305 32.9469L193.336 33.494ZM193.204 45.0625H188.205C187.551 45.0625 187.132 44.3655 187.439 43.7876V43.7876C187.59 43.5043 187.884 43.3272 188.205 43.3272H193.204C194.258 43.3272 195.156 43.1289 195.898 42.7323C196.649 42.3246 197.225 41.7462 197.626 40.997C198.026 40.2478 198.226 39.3554 198.226 38.3197C198.226 37.4052 198.05 36.5844 197.699 35.8573C197.347 35.1301 196.811 34.5572 196.088 34.1385C195.366 33.7088 194.448 33.494 193.336 33.494H190.476C189.996 33.494 189.609 33.1003 189.617 32.62V32.62C189.625 32.1511 190.007 31.7752 190.476 31.7752H194.548C194.775 31.7752 194.983 31.9008 195.089 32.1014V32.1014C195.183 32.28 195.359 32.3982 195.558 32.4326C196.382 32.5756 197.111 32.8963 197.743 33.3948C198.465 33.9457 199.021 34.6453 199.412 35.4937C199.812 36.342 200.012 37.273 200.012 38.2867C200.012 39.741 199.724 40.975 199.148 41.9886C198.582 42.9912 197.787 43.7569 196.762 44.2858C195.747 44.8036 194.561 45.0625 193.204 45.0625Z" fill="white"/>
<path d="M177.264 22.2904C177.257 22.3883 177.238 22.485 177.208 22.5783L170.074 44.4511C169.955 44.8158 169.615 45.0625 169.231 45.0625V45.0625C168.626 45.0625 168.199 44.4691 168.391 43.8951L175.887 21.4959C175.986 21.1997 176.264 21 176.576 21V21C176.998 21 177.331 21.3577 177.301 21.7782L177.264 22.2904ZM184.602 45.0625C184.219 45.0625 183.879 44.816 183.76 44.4517L176.611 22.5786C176.581 22.4851 176.562 22.3882 176.555 22.2901L176.518 21.7784C176.488 21.3577 176.822 21 177.243 21V21C177.556 21 177.833 21.1996 177.932 21.4957L185.442 43.8948C185.635 44.4688 185.208 45.0625 184.602 45.0625V45.0625ZM181.766 36.5679C182.25 36.5679 182.642 36.9601 182.642 37.4438V37.4438C182.642 37.9276 182.25 38.3197 181.766 38.3197H172.2C171.716 38.3197 171.324 37.9276 171.324 37.4438V37.4438C171.324 36.9601 171.716 36.5679 172.2 36.5679H181.766Z" fill="white"/>
<path d="M147.386 40.9134V21.0024C147.386 20.0239 148.179 19.2307 149.158 19.2307C150.136 19.2307 150.929 20.0239 150.929 21.0024V42.9393C150.929 43.8649 150.179 44.6153 149.253 44.6153C148.386 44.6153 147.663 43.9544 147.584 43.0911L147.386 40.9134ZM137.078 35.8728V35.5258C137.078 34.1706 137.22 32.9366 137.503 31.8239C137.786 30.7001 138.196 29.736 138.733 28.9317C139.27 28.1164 139.924 27.4939 140.695 27.0642C141.466 26.6235 142.335 26.4032 143.301 26.4032C144.258 26.4032 145.097 26.6125 145.819 27.0312C146.542 27.4499 147.157 28.0503 147.664 28.8326C148.172 29.6038 148.577 30.5293 148.879 31.609C149.182 32.6777 149.397 33.8676 149.524 35.1787V36.286C149.397 37.564 149.182 38.7319 148.879 39.7896C148.577 40.8473 148.172 41.7618 147.664 42.533C147.157 43.3042 146.537 43.8992 145.805 44.3179C145.082 44.7365 144.238 44.9459 143.272 44.9459C142.315 44.9459 141.451 44.72 140.68 44.2683C139.919 43.8166 139.27 43.183 138.733 42.3677C138.196 41.5524 137.786 40.5939 137.503 39.4921C137.22 38.3794 137.078 37.1729 137.078 35.8728ZM140.607 35.5258V35.8728C140.607 36.6881 140.67 37.4484 140.797 38.1535C140.934 38.8586 141.144 39.4811 141.427 40.021C141.71 40.5498 142.076 40.9685 142.525 41.277C142.984 41.5745 143.53 41.7232 144.165 41.7232C144.965 41.7232 145.624 41.5249 146.141 41.1283C146.659 40.7316 147.064 40.1973 147.357 39.5252C147.659 38.8421 147.864 38.0819 147.972 37.2445V34.2532C147.913 33.6032 147.791 32.9972 147.606 32.4353C147.43 31.8734 147.191 31.3832 146.888 30.9645C146.586 30.5348 146.21 30.2043 145.761 29.9729C145.321 29.7305 144.799 29.6093 144.194 29.6093C143.55 29.6093 143.003 29.7636 142.554 30.0721C142.105 30.3806 141.734 30.8047 141.441 31.3446C141.158 31.8845 140.948 32.5125 140.812 33.2286C140.675 33.9448 140.607 34.7105 140.607 35.5258Z" fill="url(#paint0_linear_432_3882)"/>
<path d="M130.564 40.401V28.5053C130.564 27.5268 131.357 26.7336 132.336 26.7336C133.314 26.7336 134.107 27.5268 134.107 28.5053V42.9055C134.107 43.8498 133.342 44.6153 132.398 44.6153C131.486 44.6153 130.734 43.8995 130.69 42.9886L130.564 40.401ZM131.046 37.259C131.064 36.9385 131.317 36.6754 131.638 36.6665C131.972 36.6572 132.249 36.9254 132.238 37.2592C132.204 38.2275 132.091 39.1316 131.896 39.9713C131.662 40.9739 131.301 41.8498 130.813 42.599C130.325 43.3372 129.7 43.9156 128.939 44.3343C128.177 44.742 127.265 44.9458 126.201 44.9458C125.43 44.9458 124.722 44.8191 124.078 44.5657C123.433 44.3123 122.877 43.9211 122.409 43.3923C121.95 42.8635 121.593 42.1748 121.34 41.3265C121.086 40.4781 120.959 39.4645 120.959 38.2856V28.498C120.959 27.5236 121.749 26.7336 122.723 26.7336C123.698 26.7336 124.488 27.5236 124.488 28.498V38.3187C124.488 38.9687 124.556 39.5141 124.693 39.9548C124.829 40.3845 125.015 40.7315 125.249 40.996C125.483 41.2604 125.757 41.4477 126.069 41.5579C126.381 41.668 126.713 41.7231 127.065 41.7231C128.07 41.7231 128.861 41.5028 129.437 41.0621C130.022 40.6103 130.437 40.0044 130.681 39.2442C130.882 38.6413 131.004 37.9796 131.046 37.259Z" fill="url(#paint1_linear_432_3882)"/>
<path d="M103.344 35.8727V35.4926C103.344 34.2036 103.51 33.0081 103.842 31.9064C104.173 30.7936 104.652 29.8296 105.276 29.0143C105.911 28.1879 106.682 27.5489 107.59 27.0972C108.507 26.6344 109.542 26.4031 110.694 26.4031C111.856 26.4031 112.89 26.6344 113.798 27.0972C114.716 27.5489 115.492 28.1879 116.126 29.0143C116.761 29.8296 117.244 30.7936 117.576 31.9064C117.907 33.0081 118.073 34.2036 118.073 35.4926V35.8727C118.073 37.1618 117.907 38.3572 117.576 39.459C117.244 40.5607 116.761 41.5248 116.126 42.3511C115.492 43.1664 114.72 43.8054 113.813 44.2682C112.905 44.7199 111.875 44.9457 110.723 44.9457C109.562 44.9457 108.522 44.7199 107.605 44.2682C106.697 43.8054 105.926 43.1664 105.291 42.3511C104.657 41.5248 104.173 40.5607 103.842 39.459C103.51 38.3572 103.344 37.1618 103.344 35.8727ZM106.872 35.4926V35.8727C106.872 36.677 106.946 37.4372 107.092 38.1534C107.238 38.8695 107.468 39.4975 107.78 40.0374C108.093 40.5773 108.493 41.0014 108.981 41.3099C109.469 41.6184 110.05 41.7727 110.723 41.7727C111.377 41.7727 111.943 41.6184 112.422 41.3099C112.91 41.0014 113.31 40.5773 113.622 40.0374C113.935 39.4975 114.164 38.8695 114.31 38.1534C114.467 37.4372 114.545 36.677 114.545 35.8727V35.4926C114.545 34.6993 114.467 33.9502 114.31 33.245C114.164 32.5289 113.93 31.8954 113.608 31.3445C113.295 30.7936 112.895 30.3639 112.407 30.0554C111.929 29.7359 111.358 29.5762 110.694 29.5762C110.03 29.5762 109.454 29.7359 108.966 30.0554C108.488 30.3639 108.093 30.7936 107.78 31.3445C107.468 31.8954 107.238 32.5289 107.092 33.245C106.946 33.9502 106.872 34.6993 106.872 35.4926Z" fill="url(#paint2_linear_432_3882)"/>
<path d="M98.3791 19.2307C99.3575 19.2307 100.151 20.0239 100.151 21.0024V42.8437C100.151 43.8221 99.3575 44.6153 98.3791 44.6153C97.4006 44.6153 96.6074 43.8221 96.6074 42.8437V21.0024C96.6074 20.0239 97.4006 19.2307 98.3791 19.2307Z" fill="url(#paint3_linear_432_3882)"/>
<path d="M89.427 38.4218C89.6822 37.5088 90.4473 36.7819 91.3954 36.7819C92.4705 36.7819 93.3375 37.7036 93.0774 38.7468C92.877 39.5508 92.5897 40.3006 92.2156 40.9962C91.5518 42.2191 90.6196 43.1831 89.419 43.8883C88.2183 44.5934 86.759 44.946 85.0411 44.946C83.7233 44.946 82.5373 44.6815 81.4831 44.1527C80.4289 43.6128 79.526 42.8526 78.7743 41.8721C78.0227 40.8805 77.4468 39.6851 77.0466 38.2858C76.6562 36.8866 76.4609 35.3221 76.4609 33.5923V31.5926C76.4609 29.8628 76.661 28.2983 77.0613 26.8991C77.4712 25.4999 78.0569 24.3044 78.8183 23.3129C79.5796 22.3103 80.4923 21.5445 81.5563 21.0157C82.63 20.4868 83.8355 20.2224 85.1728 20.2224C86.8713 20.2224 88.3062 20.575 89.4775 21.2801C90.6489 21.9852 91.5567 22.9603 92.2009 24.2053C92.5743 24.9162 92.865 25.6863 93.073 26.5157C93.334 27.5569 92.4759 28.4856 91.4025 28.4856C90.4607 28.4856 89.7015 27.7601 89.4576 26.8505C89.3586 26.4816 89.2384 26.1397 89.0968 25.8249C88.7747 25.0867 88.2964 24.5248 87.6619 24.1392C87.0275 23.7425 86.1978 23.5442 85.1728 23.5442C84.3334 23.5442 83.6013 23.7205 82.9766 24.0731C82.3518 24.4256 81.8296 24.9435 81.4099 25.6266C80.9901 26.3097 80.6729 27.1525 80.4582 28.1551C80.2532 29.1467 80.1507 30.2815 80.1507 31.5596V33.5923C80.1507 34.8042 80.2434 35.906 80.4289 36.8976C80.6241 37.8782 80.9169 38.721 81.3074 39.4261C81.7076 40.1313 82.2152 40.6766 82.8301 41.0623C83.4451 41.4479 84.1821 41.6407 85.0411 41.6407C86.0855 41.6407 86.9299 41.4534 87.5741 41.0788C88.2281 40.7042 88.721 40.1588 89.0529 39.4427C89.1991 39.1316 89.3238 38.7913 89.427 38.4218Z" fill="url(#paint4_linear_432_3882)"/>
<path d="M34.0756 35.7692C34.0756 46.3901 26.4475 55 17.0378 55C7.62807 55 0 46.3901 0 35.7692C0 25.1484 7.62807 16.5385 17.0378 16.5385C26.4475 16.5385 34.0756 25.1484 34.0756 35.7692Z" fill="url(#paint5_linear_432_3882)"/>
<path d="M68.1511 35.7692C68.1511 46.3901 60.523 55 51.1133 55C41.7036 55 34.0756 46.3901 34.0756 35.7692C34.0756 25.1484 41.7036 16.5385 51.1133 16.5385C60.523 16.5385 68.1511 25.1484 68.1511 35.7692Z" fill="url(#paint6_linear_432_3882)"/>
<path d="M51.1133 19.2308C51.1133 29.8516 43.4853 38.4615 34.0756 38.4615C24.6658 38.4615 17.0378 29.8516 17.0378 19.2308C17.0378 8.60991 24.6658 0 34.0756 0C43.4853 0 51.1133 8.60991 51.1133 19.2308Z" fill="url(#paint7_linear_432_3882)"/>
<path d="M16.5266 38.4615H51.4541V55H16.5266V38.4615Z" fill="url(#paint8_linear_432_3882)"/>
<path d="M57.7581 16.5385C57.7581 21.3179 54.3254 25.1923 50.0911 25.1923C45.8567 25.1923 42.4241 21.3179 42.4241 16.5385C42.4241 11.7591 45.8567 7.88462 50.0911 7.88462C54.3254 7.88462 57.7581 11.7591 57.7581 16.5385Z" fill="url(#paint9_linear_432_3882)"/>
<path d="M39.7445 40.3439L39.7333 40.3481L39.719 40.3556C38.3959 41.0441 36.9533 41.1423 35.6379 40.9925L35.9055 39.0895C36.9814 39.1997 38.0637 39.0994 39.0057 38.6092L39.0063 38.6088C39.0521 38.585 39.075 38.5731 39.0881 38.5668C39.1034 38.5596 39.1052 38.5588 39.1208 38.5522C39.1342 38.5466 39.1571 38.5379 39.2029 38.5206C40.3282 38.0947 41.1277 37.3049 41.8586 36.3226C42.125 35.9645 42.2582 35.7855 42.4056 35.6976C42.5308 35.623 42.6513 35.5884 42.793 35.5864C42.9596 35.5841 43.137 35.6627 43.4917 35.8199L49.0421 38.2796C49.5342 38.4976 49.7802 38.6067 49.9244 38.8191C50.0342 38.9807 50.1022 39.2114 50.1001 39.415C50.0974 39.6825 49.9688 39.9169 49.7118 40.3856C48.0558 43.4048 45.6493 45.8253 42.7771 47.3335C39.4481 49.0816 35.6915 49.5003 32.1239 48.5207C28.5563 47.5412 25.3898 45.2217 23.1442 41.943C20.8985 38.6644 19.7072 34.6213 19.7658 30.4776C19.7691 30.2468 19.7762 30.0165 19.7872 29.7867L21.4568 29.999L21.5243 29.3229C21.4934 29.7161 21.475 30.1115 21.4694 30.5083C21.4169 34.2158 22.4829 37.8333 24.4921 40.7668C26.5014 43.7004 29.3346 45.7757 32.5266 46.6521C35.7187 47.5286 39.0798 47.154 42.0584 45.5899C44.4675 44.3249 46.5106 42.3424 47.9774 39.8737L43.0611 37.6951C42.2392 38.7732 41.218 39.7862 39.7445 40.3439Z" fill="white"/>
<path fill-rule="evenodd" clip-rule="evenodd" d="M35.2572 14.4417C35.7171 14.4168 36.1771 14.4168 36.6356 14.4413C38.6548 14.5495 40.6454 15.1342 42.4743 16.176C44.8587 17.5342 46.853 19.6035 48.2503 22.1417L43.0681 24.3614L43.0292 24.3046C42.1824 23.0677 41.1261 22.346 40.002 21.7056C38.1804 20.6681 36.1005 20.3604 34.1036 20.833C32.1067 21.3057 30.3116 22.5306 29.0128 24.3067C28.0153 25.6708 27.3561 27.2978 27.0892 29.0225L28.7798 29.2769C29.0035 27.9073 29.533 26.6164 30.3268 25.5308C31.3795 24.0912 32.8347 23.0983 34.4533 22.7152C36.0719 22.3321 37.7579 22.5815 39.2343 23.4225C40.2893 24.0234 41.07 24.588 41.681 25.4804C42.0339 25.9959 42.2103 26.2536 42.3586 26.3489C42.5007 26.4401 42.5888 26.4682 42.7522 26.4742C42.9227 26.4806 43.1304 26.3916 43.5458 26.2137L49.287 23.7545C49.7726 23.5466 50.0154 23.4426 50.161 23.236C50.2719 23.0787 50.3435 22.853 50.3462 22.652C50.3498 22.3881 50.2305 22.1531 49.9919 21.6833C48.4221 18.5922 46.0791 16.0752 43.2419 14.4591C41.1979 13.2948 38.973 12.6412 36.7163 12.5204C36.2868 12.4974 35.8561 12.4937 35.4253 12.5095V14.4103L35.2572 14.4417ZM42.5441 24.5791C42.543 24.5795 42.5427 24.5795 42.5433 24.5793L42.5441 24.5791Z" fill="white"/>
<path d="M19.8863 28.5254C19.8642 28.7262 19.8452 28.9277 19.829 29.1296L19.8591 28.8282C19.8673 28.7274 19.8764 28.6265 19.8863 28.5254Z" fill="white"/>
<path d="M35.7793 13.5576C35.7793 15.31 34.5206 16.7307 32.968 16.7307C31.4154 16.7307 30.1568 15.31 30.1568 13.5576C30.1568 11.8052 31.4154 10.3845 32.968 10.3845C34.5206 10.3845 35.7793 11.8052 35.7793 13.5576ZM31.9798 13.5576C31.9798 14.1736 32.4222 14.673 32.968 14.673C33.5138 14.673 33.9563 14.1736 33.9563 13.5576C33.9563 12.9416 33.5138 12.4422 32.968 12.4422C32.4222 12.4422 31.9798 12.9416 31.9798 13.5576Z" fill="white"/>
<path d="M24.5343 22.7884C24.5343 24.5408 23.2757 25.9614 21.7231 25.9614C20.1705 25.9614 18.9119 24.5408 18.9119 22.7884C18.9119 21.0359 20.1705 19.6153 21.7231 19.6153C23.2757 19.6153 24.5343 21.0359 24.5343 22.7884ZM20.7348 22.7884C20.7348 23.4044 21.1773 23.9038 21.7231 23.9038C22.2689 23.9038 22.7113 23.4044 22.7113 22.7884C22.7113 22.1723 22.2689 21.6729 21.7231 21.6729C21.1773 21.6729 20.7348 22.1723 20.7348 22.7884Z" fill="white"/>
<path fill-rule="evenodd" clip-rule="evenodd" d="M16.8673 29.1345C16.8673 28.5504 17.2869 28.0768 17.8044 28.0768H27.7715C28.289 28.0768 28.7938 28.5504 28.7938 29.1345C28.7938 29.7187 28.289 30.1922 27.7715 30.1922H17.8044C17.2869 30.1922 16.8673 29.7187 16.8673 29.1345Z" fill="white"/>
<path d="M18.06 29.1345C18.06 30.887 16.8013 32.3076 15.2487 32.3076C13.6961 32.3076 12.4375 30.887 12.4375 29.1345C12.4375 27.3821 13.6961 25.9614 15.2487 25.9614C16.8013 25.9614 18.06 27.3821 18.06 29.1345ZM14.2605 29.1345C14.2605 29.7506 14.7029 30.25 15.2487 30.25C15.7945 30.25 16.237 29.7506 16.237 29.1345C16.237 28.5185 15.7945 28.0191 15.2487 28.0191C14.7029 28.0191 14.2605 28.5185 14.2605 29.1345Z" fill="white"/>
<path d="M36.6311 39.5191C36.6311 41.2716 35.3725 42.6922 33.8199 42.6922C32.2673 42.6922 31.0087 41.2716 31.0087 39.5191C31.0087 37.7667 32.2673 36.3461 33.8199 36.3461C35.3725 36.3461 36.6311 37.7667 36.6311 39.5191ZM32.8317 39.5191C32.8317 40.1352 33.2741 40.6346 33.8199 40.6346C34.3657 40.6346 34.8082 40.1352 34.8082 39.5191C34.8082 38.9031 34.3657 38.4037 33.8199 38.4037C33.2741 38.4037 32.8317 38.9031 32.8317 39.5191Z" fill="white"/>
<path fill-rule="evenodd" clip-rule="evenodd" d="M23.0861 23.2691C23.0861 22.685 23.5057 22.2114 24.0232 22.2114H31.0087C31.5262 22.2114 31.9458 22.685 31.9458 23.2691C31.9458 23.8533 31.5262 24.3268 31.0087 24.3268H24.0232C23.5057 24.3268 23.0861 23.8533 23.0861 23.2691Z" fill="white"/>
<path fill-rule="evenodd" clip-rule="evenodd" d="M23.3417 17.7884C23.3417 17.2042 23.7612 16.7307 24.2788 16.7307H30.0716C30.5891 16.7307 31.0087 17.2042 31.0087 17.7884C31.0087 18.3725 30.5891 18.8461 30.0716 18.8461H24.2788C23.7612 18.8461 23.3417 18.3725 23.3417 17.7884Z" fill="white"/>
<path d="M40.0387 30.1922C40.0387 32.8474 38.1317 34.9999 35.7793 34.9999C33.4268 34.9999 31.5198 32.8474 31.5198 30.1922C31.5198 27.537 33.4268 25.3845 35.7793 25.3845C38.1317 25.3845 40.0387 27.537 40.0387 30.1922ZM33.2236 30.1922C33.2236 31.7853 34.3678 33.0768 35.7793 33.0768C37.1907 33.0768 38.3349 31.7853 38.3349 30.1922C38.3349 28.5991 37.1907 27.3076 35.7793 27.3076C34.3678 27.3076 33.2236 28.5991 33.2236 30.1922Z" fill="white"/>
<path d="M156.871 19C157.352 19 157.742 19.386 157.742 19.8623V43.2621C157.742 43.7384 157.352 44.1244 156.871 44.1244V44.1244C156.39 44.1244 156 43.7384 156 43.2621V19.8623C156 19.386 156.39 19 156.871 19V19Z" fill="white"/>
<path fill-rule="evenodd" clip-rule="evenodd" d="M156.193 44.0103C156.193 43.4636 156.641 43.0205 157.193 43.0205H167.193C167.746 43.0205 168.193 43.4636 168.193 44.0103C168.193 44.5569 167.746 45 167.193 45H157.193C156.641 45 156.193 44.5569 156.193 44.0103Z" fill="white"/>
<defs>
<linearGradient id="paint0_linear_432_3882" x1="144.004" y1="19.2307" x2="144.004" y2="44.9459" gradientUnits="userSpaceOnUse">
<stop stop-color="#016AFF"/>
<stop offset="1" stop-color="#014099"/>
</linearGradient>
<linearGradient id="paint1_linear_432_3882" x1="127.533" y1="26.7336" x2="127.533" y2="44.9458" gradientUnits="userSpaceOnUse">
<stop stop-color="#016AFF"/>
<stop offset="1" stop-color="#014099"/>
</linearGradient>
<linearGradient id="paint2_linear_432_3882" x1="110.709" y1="26.4031" x2="110.709" y2="44.9457" gradientUnits="userSpaceOnUse">
<stop stop-color="#016AFF"/>
<stop offset="1" stop-color="#014099"/>
</linearGradient>
<linearGradient id="paint3_linear_432_3882" x1="98.3791" y1="19.2307" x2="98.3791" y2="44.6153" gradientUnits="userSpaceOnUse">
<stop stop-color="#016AFF"/>
<stop offset="1" stop-color="#014099"/>
</linearGradient>
<linearGradient id="paint4_linear_432_3882" x1="84.9312" y1="20.2224" x2="84.9312" y2="44.946" gradientUnits="userSpaceOnUse">
<stop stop-color="#016AFF"/>
<stop offset="1" stop-color="#014099"/>
</linearGradient>
<linearGradient id="paint5_linear_432_3882" x1="34.0756" y1="0" x2="34.0756" y2="55" gradientUnits="userSpaceOnUse">
<stop stop-color="#00A4FF"/>
<stop offset="0.3" stop-color="#0061FF"/>
<stop offset="0.6" stop-color="#024FCC"/>
<stop offset="1" stop-color="#053D99"/>
</linearGradient>
<linearGradient id="paint6_linear_432_3882" x1="34.0756" y1="0" x2="34.0756" y2="55" gradientUnits="userSpaceOnUse">
<stop stop-color="#00A4FF"/>
<stop offset="0.3" stop-color="#0061FF"/>
<stop offset="0.6" stop-color="#024FCC"/>
<stop offset="1" stop-color="#053D99"/>
</linearGradient>
<linearGradient id="paint7_linear_432_3882" x1="34.0756" y1="0" x2="34.0756" y2="55" gradientUnits="userSpaceOnUse">
<stop stop-color="#00A4FF"/>
<stop offset="0.3" stop-color="#0061FF"/>
<stop offset="0.6" stop-color="#024FCC"/>
<stop offset="1" stop-color="#053D99"/>
</linearGradient>
<linearGradient id="paint8_linear_432_3882" x1="34.0756" y1="0" x2="34.0756" y2="55" gradientUnits="userSpaceOnUse">
<stop stop-color="#00A4FF"/>
<stop offset="0.3" stop-color="#0061FF"/>
<stop offset="0.6" stop-color="#024FCC"/>
<stop offset="1" stop-color="#053D99"/>
</linearGradient>
<linearGradient id="paint9_linear_432_3882" x1="34.0756" y1="0" x2="34.0756" y2="55" gradientUnits="userSpaceOnUse">
<stop stop-color="#00A4FF"/>
<stop offset="0.3" stop-color="#0061FF"/>
<stop offset="0.6" stop-color="#024FCC"/>
<stop offset="1" stop-color="#053D99"/>
</linearGradient>
</defs>
</svg>
