<svg width="144" height="36" viewBox="0 0 144 36" fill="none" xmlns="http://www.w3.org/2000/svg">
<path d="M138.167 21.4805H134.311C134.006 21.4805 133.758 21.2369 133.752 20.9326C133.746 20.62 133.998 20.3633 134.311 20.3633H137.533C138.307 20.3633 138.965 20.2523 139.51 20.0303C140.054 19.8083 140.466 19.4788 140.745 19.042C141.032 18.598 141.175 18.0537 141.175 17.4092C141.175 16.7503 141.035 16.2061 140.756 15.7764C140.477 15.3395 140.058 15.0173 139.499 14.8096C138.94 14.6019 138.239 14.498 137.394 14.498H135.106C134.554 14.498 134.106 14.9458 134.106 15.498V28.3394C134.106 28.7042 133.811 29 133.446 29C133.081 29 132.785 28.7042 132.785 28.3394V14.3594C132.785 13.8071 133.233 13.3594 133.785 13.3594H137.394C138.188 13.3594 138.901 13.4382 139.531 13.5957C140.161 13.7533 140.699 14.0003 141.143 14.3369C141.587 14.6735 141.923 15.0996 142.152 15.6152C142.389 16.1237 142.507 16.7324 142.507 17.4414C142.507 18.0859 142.364 18.6696 142.077 19.1924C141.791 19.708 141.386 20.1305 140.863 20.46C140.391 20.7554 139.83 20.9486 139.183 21.0394C139.065 21.0558 138.951 21.0887 138.844 21.1418L138.167 21.4805ZM138.07 29H134.34C133.901 29 133.631 28.5218 133.856 28.1459C133.958 27.976 134.142 27.8721 134.34 27.8721H138.07C138.844 27.8721 139.503 27.7432 140.047 27.4854C140.598 27.2204 141.021 26.8444 141.314 26.3574C141.608 25.8704 141.755 25.2904 141.755 24.6172C141.755 24.0228 141.626 23.4893 141.368 23.0166C141.11 22.5439 140.716 22.1715 140.187 21.8994C139.657 21.6201 138.983 21.4805 138.167 21.4805H135.997C135.684 21.4805 135.433 21.2238 135.439 20.9111C135.445 20.6069 135.693 20.3633 135.997 20.3633H139.082C139.234 20.3633 139.375 20.4434 139.453 20.5741C139.522 20.6915 139.644 20.7676 139.779 20.7878C140.391 20.8792 140.932 21.0887 141.4 21.416C141.93 21.7741 142.339 22.2288 142.625 22.7803C142.919 23.3317 143.065 23.9368 143.065 24.5957C143.065 25.541 142.854 26.3431 142.432 27.002C142.016 27.6536 141.433 28.1514 140.681 28.4951C139.936 28.8317 139.066 29 138.07 29Z" fill="black"/>
<path d="M124.176 14.189C124.171 14.2586 124.156 14.3272 124.132 14.3927L118.908 28.5803C118.816 28.8325 118.575 29 118.307 29C117.858 29 117.548 28.5516 117.707 28.1321L123.156 13.7077C123.235 13.4981 123.435 13.3594 123.659 13.3594C123.974 13.3594 124.222 13.6277 124.196 13.9412L124.176 14.189ZM129.535 29C129.266 29 129.026 28.8327 128.933 28.5808L123.7 14.3929C123.675 14.3272 123.66 14.2586 123.655 14.1888L123.635 13.9414C123.609 13.6278 123.857 13.3594 124.172 13.3594C124.396 13.3594 124.596 13.498 124.676 13.7075L130.134 28.1319C130.293 28.5514 129.983 29 129.535 29ZM127.552 23.4785C127.866 23.4785 128.121 23.7334 128.121 24.0479C128.121 24.3623 127.866 24.6172 127.552 24.6172H120.387C120.072 24.6172 119.817 24.3623 119.817 24.0479C119.817 23.7334 120.072 23.4785 120.387 23.4785H127.552Z" fill="black"/>
<path d="M114.581 12.5C114.934 12.5 115.22 12.7862 115.22 13.1392V28.3608C115.22 28.7138 114.934 29 114.581 29C114.228 29 113.941 28.7138 113.941 28.3608V13.1392C113.941 12.7862 114.228 12.5 114.581 12.5Z" fill="black"/>
<path d="M108.131 26.5938V13.7998C108.131 13.0819 108.713 12.5 109.431 12.5C110.149 12.5 110.73 13.0819 110.73 13.7998V27.7635C110.73 28.4464 110.177 29 109.494 29C108.86 29 108.329 28.5205 108.264 27.8898L108.131 26.5938ZM100.568 23.3174V23.0918C100.568 22.2109 100.672 21.4089 100.88 20.6855C101.088 19.9551 101.388 19.3285 101.782 18.8057C102.176 18.2757 102.656 17.8711 103.222 17.5918C103.787 17.3053 104.425 17.1621 105.134 17.1621C105.836 17.1621 106.451 17.2982 106.981 17.5703C107.511 17.8424 107.963 18.2327 108.335 18.7412C108.707 19.2425 109.005 19.8441 109.227 20.5459C109.449 21.2406 109.606 22.014 109.699 22.8662V23.5859C109.606 24.4167 109.449 25.1758 109.227 25.8633C109.005 26.5508 108.707 27.1452 108.335 27.6465C107.963 28.1478 107.508 28.5345 106.971 28.8066C106.441 29.0788 105.821 29.2148 105.112 29.2148C104.41 29.2148 103.777 29.068 103.211 28.7744C102.652 28.4808 102.176 28.069 101.782 27.5391C101.388 27.0091 101.088 26.3861 100.88 25.6699C100.672 24.9466 100.568 24.1624 100.568 23.3174ZM103.157 23.0918V23.3174C103.157 23.8473 103.204 24.3415 103.297 24.7998C103.397 25.2581 103.551 25.6628 103.759 26.0137C103.966 26.3574 104.235 26.6296 104.564 26.8301C104.901 27.0234 105.302 27.1201 105.768 27.1201C106.355 27.1201 106.838 26.9912 107.218 26.7334C107.597 26.4756 107.895 26.1283 108.109 25.6914C108.127 25.6568 108.144 25.6219 108.16 25.5867C108.565 24.7179 108.561 23.7278 108.561 22.7691V22.2646C108.518 21.8421 108.428 21.4482 108.292 21.083C108.163 20.7178 107.988 20.3991 107.766 20.127C107.544 19.8477 107.268 19.6328 106.938 19.4824C106.616 19.3249 106.233 19.2461 105.789 19.2461C105.316 19.2461 104.915 19.3464 104.586 19.5469C104.257 19.7474 103.984 20.0231 103.77 20.374C103.562 20.7249 103.408 21.1331 103.308 21.5986C103.207 22.0641 103.157 22.5618 103.157 23.0918Z" fill="url(#paint0_linear_404_3866)"/>
<path d="M95.7891 26.2607V18.6768C95.7891 17.9589 96.371 17.377 97.0889 17.377C97.8067 17.377 98.3887 17.9589 98.3887 18.6768V27.7418C98.3887 28.4367 97.8254 29 97.1305 29C96.4624 29 95.9108 28.4779 95.8742 27.8108L95.7891 26.2607ZM96.1389 24.2679C96.1564 24.0324 96.3426 23.8391 96.5786 23.8333C96.823 23.8272 97.0255 24.0238 97.0148 24.2681C96.988 24.8788 96.9053 25.4499 96.7666 25.9814C96.5947 26.6331 96.3298 27.2025 95.9717 27.6895C95.6136 28.1693 95.1553 28.5452 94.5967 28.8174C94.0381 29.0824 93.3685 29.2148 92.5879 29.2148C92.0221 29.2148 91.5029 29.1325 91.0303 28.9678C90.5576 28.8031 90.1494 28.5488 89.8057 28.2051C89.4691 27.8613 89.2077 27.4137 89.0215 26.8623C88.8353 26.3109 88.7422 25.652 88.7422 24.8857V18.6714C88.7422 17.9565 89.3217 17.377 90.0366 17.377C90.7515 17.377 91.3311 17.9565 91.3311 18.6714V24.9072C91.3311 25.3298 91.3812 25.6842 91.4814 25.9707C91.5817 26.25 91.7178 26.4756 91.8896 26.6475C92.0615 26.8193 92.262 26.9411 92.4912 27.0127C92.7204 27.0843 92.9639 27.1201 93.2217 27.1201C93.9593 27.1201 94.5394 26.9769 94.9619 26.6904C95.3916 26.3968 95.696 26.0029 95.875 25.5088C96.0174 25.1308 96.1054 24.7171 96.1389 24.2679Z" fill="url(#paint1_linear_404_3866)"/>
<path d="M75.8184 23.3174V23.0703C75.8184 22.2324 75.9401 21.4554 76.1836 20.7393C76.4271 20.016 76.778 19.3893 77.2363 18.8594C77.7018 18.3223 78.2676 17.9069 78.9336 17.6133C79.6068 17.3125 80.3659 17.1621 81.2109 17.1621C82.0632 17.1621 82.8223 17.3125 83.4883 17.6133C84.1615 17.9069 84.7308 18.3223 85.1963 18.8594C85.6618 19.3893 86.0163 20.016 86.2598 20.7393C86.5033 21.4554 86.625 22.2324 86.625 23.0703V23.3174C86.625 24.1553 86.5033 24.9323 86.2598 25.6484C86.0163 26.3646 85.6618 26.9912 85.1963 27.5283C84.7308 28.0583 84.165 28.4736 83.499 28.7744C82.833 29.068 82.0775 29.2148 81.2324 29.2148C80.3802 29.2148 79.6175 29.068 78.9443 28.7744C78.2783 28.4736 77.7126 28.0583 77.2471 27.5283C76.7816 26.9912 76.4271 26.3646 76.1836 25.6484C75.9401 24.9323 75.8184 24.1553 75.8184 23.3174ZM78.4072 23.0703V23.3174C78.4072 23.8402 78.4609 24.3343 78.5684 24.7998C78.6758 25.2653 78.8441 25.6735 79.0732 26.0244C79.3024 26.3753 79.596 26.651 79.9541 26.8516C80.3122 27.0521 80.7383 27.1523 81.2324 27.1523C81.7122 27.1523 82.1276 27.0521 82.4785 26.8516C82.8366 26.651 83.1302 26.3753 83.3594 26.0244C83.5885 25.6735 83.7568 25.2653 83.8643 24.7998C83.9788 24.3343 84.0361 23.8402 84.0361 23.3174V23.0703C84.0361 22.5547 83.9788 22.0677 83.8643 21.6094C83.7568 21.1439 83.585 20.7321 83.3486 20.374C83.1195 20.016 82.8258 19.7367 82.4678 19.5361C82.1169 19.3285 81.6979 19.2246 81.2109 19.2246C80.724 19.2246 80.3014 19.3285 79.9434 19.5361C79.5924 19.7367 79.3024 20.016 79.0732 20.374C78.8441 20.7321 78.6758 21.1439 78.5684 21.6094C78.4609 22.0677 78.4072 22.5547 78.4072 23.0703Z" fill="url(#paint2_linear_404_3866)"/>
<path d="M72.1768 12.5C72.8946 12.5 73.4766 13.0819 73.4766 13.7998V27.7002C73.4766 28.4181 72.8946 29 72.1768 29C71.4589 29 70.877 28.4181 70.877 27.7002V13.7998C70.877 13.0819 71.4589 12.5 72.1768 12.5Z" fill="url(#paint3_linear_404_3866)"/>
<path d="M65.571 25.0876C65.7959 24.436 66.3482 23.9082 67.0375 23.9082C67.832 23.9082 68.4733 24.5968 68.2363 25.3551C68.0928 25.8139 67.8989 26.2447 67.6543 26.6475C67.1673 27.4424 66.4834 28.069 65.6025 28.5273C64.7217 28.9857 63.651 29.2148 62.3906 29.2148C61.4238 29.2148 60.5537 29.043 59.7803 28.6992C59.0068 28.3483 58.3444 27.8542 57.793 27.2168C57.2415 26.5723 56.819 25.7952 56.5254 24.8857C56.2389 23.9762 56.0957 22.9593 56.0957 21.835V20.5352C56.0957 19.4108 56.2425 18.3939 56.5361 17.4844C56.8369 16.5749 57.2666 15.7979 57.8252 15.1533C58.3838 14.5016 59.0534 14.0039 59.834 13.6602C60.6217 13.3164 61.5062 13.1445 62.4873 13.1445C63.7334 13.1445 64.7861 13.3737 65.6455 13.832C66.5049 14.2904 67.1709 14.9242 67.6436 15.7334C67.8884 16.1464 68.0848 16.5901 68.2327 17.0647C68.4686 17.8217 67.835 18.5156 67.042 18.5156C66.3579 18.5156 65.8101 17.9892 65.595 17.3397C65.5298 17.1428 65.4535 16.9582 65.3662 16.7861C65.1299 16.3063 64.779 15.9411 64.3135 15.6904C63.848 15.4326 63.2393 15.3037 62.4873 15.3037C61.8714 15.3037 61.3343 15.4183 60.876 15.6475C60.4176 15.8766 60.0345 16.2132 59.7266 16.6572C59.4186 17.1012 59.1859 17.6491 59.0283 18.3008C58.8779 18.9453 58.8027 19.6829 58.8027 20.5137V21.835C58.8027 22.6227 58.8708 23.3389 59.0068 23.9834C59.1501 24.6208 59.3649 25.1686 59.6514 25.627C59.945 26.0853 60.3174 26.4398 60.7686 26.6904C61.2197 26.9411 61.7604 27.0664 62.3906 27.0664C63.1569 27.0664 63.7764 26.9447 64.249 26.7012C64.7288 26.4577 65.0905 26.1032 65.334 25.6377C65.4241 25.4677 65.5031 25.2844 65.571 25.0876Z" fill="url(#paint4_linear_404_3866)"/>
<path d="M25 23.25C25 30.1536 19.4036 35.75 12.5 35.75C5.59644 35.75 0 30.1536 0 23.25C0 16.3464 5.59644 10.75 12.5 10.75C19.4036 10.75 25 16.3464 25 23.25Z" fill="url(#paint5_linear_404_3866)"/>
<path d="M50 23.25C50 30.1536 44.4036 35.75 37.5 35.75C30.5964 35.75 25 30.1536 25 23.25C25 16.3464 30.5964 10.75 37.5 10.75C44.4036 10.75 50 16.3464 50 23.25Z" fill="url(#paint6_linear_404_3866)"/>
<path d="M37.5 12.5C37.5 19.4036 31.9036 25 25 25C18.0964 25 12.5 19.4036 12.5 12.5C12.5 5.59644 18.0964 0 25 0C31.9036 0 37.5 5.59644 37.5 12.5Z" fill="url(#paint7_linear_404_3866)"/>
<path d="M12.125 25H37.75V35.75H12.125V25Z" fill="url(#paint8_linear_404_3866)"/>
<path d="M42.375 10.75C42.375 13.8566 39.8566 16.375 36.75 16.375C33.6434 16.375 31.125 13.8566 31.125 10.75C31.125 7.6434 33.6434 5.125 36.75 5.125C39.8566 5.125 42.375 7.6434 42.375 10.75Z" fill="url(#paint9_linear_404_3866)"/>
<path d="M29.1592 26.2236L29.1509 26.2264L29.1405 26.2312C28.1698 26.6787 27.1114 26.7426 26.1463 26.6452L26.3426 25.4083C27.132 25.4798 27.926 25.4147 28.6171 25.096L28.6176 25.0958C28.6511 25.0803 28.668 25.0726 28.6776 25.0685C28.6888 25.0638 28.6902 25.0633 28.7016 25.059C28.7114 25.0553 28.7282 25.0497 28.7618 25.0384C29.5874 24.7616 30.174 24.2483 30.7102 23.6098C30.9056 23.377 31.0034 23.2606 31.1115 23.2035C31.2034 23.155 31.2918 23.1325 31.3957 23.1312C31.518 23.1297 31.6481 23.1808 31.9084 23.283L35.9804 24.8818C36.3415 25.0235 36.522 25.0944 36.6278 25.2325C36.7083 25.3375 36.7582 25.4875 36.7567 25.6198C36.7547 25.7937 36.6604 25.946 36.4718 26.2507C35.2569 28.2132 33.4913 29.7865 31.3841 30.7669C28.9417 31.9031 26.1856 32.1752 23.5682 31.5385C20.9508 30.9018 18.6276 29.3942 16.9801 27.263C15.3326 25.1319 14.4585 22.5039 14.5015 19.8105C14.5039 19.6605 14.5091 19.5108 14.5172 19.3614L15.7421 19.4994L15.7917 19.06C15.769 19.3155 15.7555 19.5725 15.7514 19.8305C15.7129 22.2403 16.4949 24.5917 17.969 26.4985C19.4432 28.4053 21.5218 29.7543 23.8637 30.324C26.2055 30.8936 28.6715 30.6502 30.8568 29.6335C32.6243 28.8112 34.1232 27.5226 35.1993 25.918L31.5924 24.5019C30.9894 25.2026 30.2402 25.8611 29.1592 26.2236Z" fill="white"/>
<path fill-rule="evenodd" clip-rule="evenodd" d="M25.867 9.38715C26.2044 9.371 26.5419 9.37098 26.8783 9.38693C28.3597 9.4572 29.8201 9.83732 31.1619 10.5144C32.9113 11.3973 34.3744 12.7423 35.3996 14.3922L31.5976 15.835L31.569 15.798C30.9478 14.9941 30.1728 14.5249 29.348 14.1087C28.0117 13.4343 26.4857 13.2343 25.0207 13.5415C23.5556 13.8488 22.2386 14.645 21.2857 15.7994C20.5538 16.6861 20.0702 17.7436 19.8744 18.8647L21.1147 19.03C21.2789 18.1398 21.6673 17.3007 22.2497 16.5951C23.0221 15.6593 24.0897 15.014 25.2772 14.7649C26.4647 14.5159 27.7016 14.678 28.7849 15.2247C29.5588 15.6153 30.1317 15.9822 30.5799 16.5623C30.8388 16.8974 30.9682 17.0649 31.0771 17.1268C31.1813 17.1861 31.2459 17.2044 31.3658 17.2083C31.4909 17.2124 31.6433 17.1546 31.948 17.039L36.1602 15.4405C36.5164 15.3053 36.6945 15.2377 36.8014 15.1035C36.8827 15.0012 36.9353 14.8545 36.9373 14.7239C36.9399 14.5523 36.8524 14.3996 36.6773 14.0942C35.5256 12.085 33.8067 10.449 31.7251 9.39849C30.2254 8.6417 28.5931 8.21687 26.9375 8.13834C26.6224 8.12339 26.3064 8.12099 25.9903 8.13123V9.36676L25.867 9.38715ZM31.2131 15.9765C31.2123 15.9767 31.2121 15.9767 31.2126 15.9766L31.2131 15.9765Z" fill="white"/>
<path d="M14.5899 18.5416C14.5737 18.6721 14.5597 18.803 14.5479 18.9343L14.57 18.7384C14.576 18.6729 14.5826 18.6073 14.5899 18.5416Z" fill="white"/>
<path d="M26.25 8.8125C26.25 9.95159 25.3266 10.875 24.1875 10.875C23.0484 10.875 22.125 9.95159 22.125 8.8125C22.125 7.67341 23.0484 6.75 24.1875 6.75C25.3266 6.75 26.25 7.67341 26.25 8.8125ZM23.4625 8.8125C23.4625 9.21293 23.7871 9.53754 24.1875 9.53754C24.5879 9.53754 24.9125 9.21293 24.9125 8.8125C24.9125 8.41207 24.5879 8.08746 24.1875 8.08746C23.7871 8.08746 23.4625 8.41207 23.4625 8.8125Z" fill="white"/>
<path d="M18 14.8125C18 15.9516 17.0766 16.875 15.9375 16.875C14.7984 16.875 13.875 15.9516 13.875 14.8125C13.875 13.6734 14.7984 12.75 15.9375 12.75C17.0766 12.75 18 13.6734 18 14.8125ZM15.2125 14.8125C15.2125 15.2129 15.5371 15.5375 15.9375 15.5375C16.3379 15.5375 16.6625 15.2129 16.6625 14.8125C16.6625 14.4121 16.3379 14.0875 15.9375 14.0875C15.5371 14.0875 15.2125 14.4121 15.2125 14.8125Z" fill="white"/>
<path fill-rule="evenodd" clip-rule="evenodd" d="M12.375 18.9375C12.375 18.5578 12.6828 18.25 13.0625 18.25H20.375C20.7547 18.25 21.125 18.5578 21.125 18.9375C21.125 19.3172 20.7547 19.625 20.375 19.625H13.0625C12.6828 19.625 12.375 19.3172 12.375 18.9375Z" fill="white"/>
<path d="M13.25 18.9375C13.25 20.0766 12.3266 21 11.1875 21C10.0484 21 9.125 20.0766 9.125 18.9375C9.125 17.7984 10.0484 16.875 11.1875 16.875C12.3266 16.875 13.25 17.7984 13.25 18.9375ZM10.4625 18.9375C10.4625 19.3379 10.7871 19.6625 11.1875 19.6625C11.5879 19.6625 11.9125 19.3379 11.9125 18.9375C11.9125 18.5371 11.5879 18.2125 11.1875 18.2125C10.7871 18.2125 10.4625 18.5371 10.4625 18.9375Z" fill="white"/>
<path d="M26.875 25.6875C26.875 26.8266 25.9516 27.75 24.8125 27.75C23.6734 27.75 22.75 26.8266 22.75 25.6875C22.75 24.5484 23.6734 23.625 24.8125 23.625C25.9516 23.625 26.875 24.5484 26.875 25.6875ZM24.0875 25.6875C24.0875 26.0879 24.4121 26.4125 24.8125 26.4125C25.2129 26.4125 25.5375 26.0879 25.5375 25.6875C25.5375 25.2871 25.2129 24.9625 24.8125 24.9625C24.4121 24.9625 24.0875 25.2871 24.0875 25.6875Z" fill="white"/>
<path fill-rule="evenodd" clip-rule="evenodd" d="M16.9375 15.125C16.9375 14.7453 17.2453 14.4375 17.625 14.4375H22.75C23.1297 14.4375 23.4375 14.7453 23.4375 15.125C23.4375 15.5047 23.1297 15.8125 22.75 15.8125H17.625C17.2453 15.8125 16.9375 15.5047 16.9375 15.125Z" fill="white"/>
<path fill-rule="evenodd" clip-rule="evenodd" d="M17.125 11.5625C17.125 11.1828 17.4328 10.875 17.8125 10.875H22.0625C22.4422 10.875 22.75 11.1828 22.75 11.5625C22.75 11.9422 22.4422 12.25 22.0625 12.25H17.8125C17.4328 12.25 17.125 11.9422 17.125 11.5625Z" fill="white"/>
<path d="M29.375 19.625C29.375 21.3509 27.9759 22.75 26.25 22.75C24.5241 22.75 23.125 21.3509 23.125 19.625C23.125 17.8991 24.5241 16.5 26.25 16.5C27.9759 16.5 29.375 17.8991 29.375 19.625ZM24.375 19.625C24.375 20.6605 25.2145 21.5 26.25 21.5C27.2855 21.5 28.125 20.6605 28.125 19.625C28.125 18.5895 27.2855 17.75 26.25 17.75C25.2145 17.75 24.375 18.5895 24.375 19.625Z" fill="white"/>
<defs>
<linearGradient id="paint0_linear_404_3866" x1="105.649" y1="12.5" x2="105.649" y2="29.2148" gradientUnits="userSpaceOnUse">
<stop stop-color="#016AFF"/>
<stop offset="1" stop-color="#014099"/>
</linearGradient>
<linearGradient id="paint1_linear_404_3866" x1="93.5654" y1="17.377" x2="93.5654" y2="29.2148" gradientUnits="userSpaceOnUse">
<stop stop-color="#016AFF"/>
<stop offset="1" stop-color="#014099"/>
</linearGradient>
<linearGradient id="paint2_linear_404_3866" x1="81.2217" y1="17.1621" x2="81.2217" y2="29.2148" gradientUnits="userSpaceOnUse">
<stop stop-color="#016AFF"/>
<stop offset="1" stop-color="#014099"/>
</linearGradient>
<linearGradient id="paint3_linear_404_3866" x1="72.1768" y1="12.5" x2="72.1768" y2="29" gradientUnits="userSpaceOnUse">
<stop stop-color="#016AFF"/>
<stop offset="1" stop-color="#014099"/>
</linearGradient>
<linearGradient id="paint4_linear_404_3866" x1="62.3101" y1="13.1445" x2="62.3101" y2="29.2148" gradientUnits="userSpaceOnUse">
<stop stop-color="#016AFF"/>
<stop offset="1" stop-color="#014099"/>
</linearGradient>
<linearGradient id="paint5_linear_404_3866" x1="25" y1="0" x2="25" y2="35.75" gradientUnits="userSpaceOnUse">
<stop stop-color="#00A4FF"/>
<stop offset="0.3" stop-color="#0061FF"/>
<stop offset="0.6" stop-color="#024FCC"/>
<stop offset="1" stop-color="#053D99"/>
</linearGradient>
<linearGradient id="paint6_linear_404_3866" x1="25" y1="0" x2="25" y2="35.75" gradientUnits="userSpaceOnUse">
<stop stop-color="#00A4FF"/>
<stop offset="0.3" stop-color="#0061FF"/>
<stop offset="0.6" stop-color="#024FCC"/>
<stop offset="1" stop-color="#053D99"/>
</linearGradient>
<linearGradient id="paint7_linear_404_3866" x1="25" y1="0" x2="25" y2="35.75" gradientUnits="userSpaceOnUse">
<stop stop-color="#00A4FF"/>
<stop offset="0.3" stop-color="#0061FF"/>
<stop offset="0.6" stop-color="#024FCC"/>
<stop offset="1" stop-color="#053D99"/>
</linearGradient>
<linearGradient id="paint8_linear_404_3866" x1="25" y1="0" x2="25" y2="35.75" gradientUnits="userSpaceOnUse">
<stop stop-color="#00A4FF"/>
<stop offset="0.3" stop-color="#0061FF"/>
<stop offset="0.6" stop-color="#024FCC"/>
<stop offset="1" stop-color="#053D99"/>
</linearGradient>
<linearGradient id="paint9_linear_404_3866" x1="25" y1="0" x2="25" y2="35.75" gradientUnits="userSpaceOnUse">
<stop stop-color="#00A4FF"/>
<stop offset="0.3" stop-color="#0061FF"/>
<stop offset="0.6" stop-color="#024FCC"/>
<stop offset="1" stop-color="#053D99"/>
</linearGradient>
</defs>
</svg>
